/* XPM */
static char * mana_60_xpm[] = {
"100 100 10 1",
" 	c None",
".	c #ACE6E2",
"+	c #000000",
"@	c #DE7C25",
"#	c #FFFFFF",
"$	c #E6B78F",
"%	c #1564D4",
"&	c #133F78",
"*	c #7793BA",
"=	c #A6DDE0",
"....................................................................................................",
"....................................................................................................",
"....................................................................................................",
"....................................................................................................",
"....................................................................................................",
"....................................................................................................",
"....................................................................................................",
"....................................................................................................",
"....................................................................................................",
"...........................................+++++++++++++++..........................................",
"...........................................+@@@@@@@@@@@@@+..........................................",
"............................................+@@@@@@@@@@@+...........................................",
"............................................+@@@@@@@@@@@+...........................................",
"......................................+++++++++++++++++++++++++.....................................",
"......................................+#######################+.....................................",
"......................................+#######$$$$$$$$$#######+.....................................",
"......................................+#######$$$$$$$$$#######+.....................................",
"......................................+#######################+.....................................",
"......................................+++++++++++++++++++++++++.....................................",
".........................................+#+.+@@@@@@@@@+.+#+........................................",
".........................................+#+.+@@@@@@@@@+.+#+........................................",
".........................................+#+.++++@@@++++.+#+........................................",
".........................................+#+....+++++....+#+........................................",
".........................................+#+.............+#+........................................",
".........................................+#+.............+#+........................................",
".........................................+#+.............+#+........................................",
".........................................+#+.............+#+........................................",
".........................................+#+.............+#+........................................",
".........................................+#+.............+#+........................................",
".........................................+#+.............+#+........................................",
".........................................+#+.............+#+........................................",
".........................................+#+.............+#+........................................",
".........................................+#+.............+#+........................................",
".........................................+#+.............+#+........................................",
".........................................+#+.............+#+........................................",
".........................................+#+.............+#+........................................",
".........................................+#+.............+#+........................................",
".........................................+#+.............+#+........................................",
".........................................+#+.............+#+........................................",
".........................................+#+.............+#+........................................",
".........................................+#+.............+#+........................................",
".........................................+#+.............+#+........................................",
".........................................+#+.............+#+........................................",
".......................................++##+.............+##++......................................",
".....................................++###+..............+####++....................................",
"...................................++####+................++####++..................................",
".................................++####++...................++####++................................",
"................................+####++.......................++####+...............................",
"...............................+###++...........................++###+..............................",
"..............................+##++.........#########.............++##+.............................",
".............................+##+..........#############............+##+............................",
"............................+##+.........################............+##+...........................",
"...........................+##+........####################...........+##+..........................",
"..........................+##+........######################...........+##+.........................",
"..........................+#+........#####################..............+#+.........................",
".........................+##+........##################.................+##+........................",
".........................+#++.......################.....................+#+........................",
"........................+##+.......#############.........................+##+.......................",
"........................+#+.......###########.............................+#+.......................",
".......................+##+......#########................................+##+......................",
".......................+#+......#######....................................+#+......................",
"......................+##+++++++#####+++++++++++++++++++++++++++++++++++++++##+.....................",
"......................+#+%%%%%%%####%%%%%%%%%%%%%%%%%%%%%%%%%%%%%%%%%%%%%&&&+#+.....................",
"......................+#+%%%%%%###%%%%%%%%%%%%%%%%%%%%%%%%%%%%%%%%***%%%%&&&+#+.....................",
"......................+#+%%%%%%##%%%%%%%%%%%%%%%%%%%%%%%%%%%%%%%%*%%%*%%%&&&+#+.....................",
".....................+##+%%%%%##%%%%%%%%%%%%%%%%%%%%%%%%%%%%%%%%%*%%%*%%%&&&+##+....................",
".....................+#+%%%%%%#%%%%%%%%%%%%%%%%%%%%%%%%%%%%%%%%%%*%%%*%%%&&&++#+....................",
".....................+#+%%%%%%#%%%%%%%%%%%%%%%%%%%%%%%%%%%%%%%%%%%***%%%&&&&&+#+....................",
".....................+#+%%%%%%%%%%%%%%%%%%%%%%%%%%%%%%%%%%%%%%%%%%%%%%%%&&&&&+#+....................",
".....................+#+%%%%%%%%%%%%%%%%%%%%%%%%%%%%%%***%%%%%%%%%%%%%%%&&&&&+#+....................",
".....................+#+%%%%%%%%%%%%%%%%%%%%%%%%%%%%%*%%%*%%%%%%%%%%%%%&&&&&&+#+....................",
".....................+#+%%%%%%%%%%%%%%%%%%%%%%%%%%%%*%%%%%*%%%%%%%%%%%%&&&&&&+#+....................",
".....................+#+%%%%%%%%%%%%%%%%%%%%%%%%%%%%*%%%%%*%%%%%%%%%%%&&&&&&&+#+....................",
".....................+#+%%%%%%%%%%%%%%%%%%%%%%%%%%%%*%%%%%*%%%%%%%%%%%&&&&&&&+#+....................",
".....................+#+%%%%%%%%%%%%%%%%%%%%%%%%%%%%%*%%%*%%%%%%%%%%%&&&&&&&&+#+....................",
".....................+##+%%%%%%%%%%%%%%%%%%%%%%%%%%%%%***%%%%%%%%%%%%&&&&&&&+##+....................",
"......................+#+%%%%%%%%%%%%%%%%%%%%%%%%%%%%%%%%%%%%%%%%%%%&&&&&&&&+#+.....................",
"......................+#+%%%%%%%%%%%%%%%%%%%%%%%%%%%%%%%%%%%%%%%%%%&&&&&&&&&+#+.....................",
"......................+##+%%%%%%%%%***%%%%%%%%%%%%%%%%%%%%%%%%%%%%&&&&&&&&&&+#+.....................",
"......................+##+%%%%%%%%%*%*%%%%%%%%%%%%%%%%%%%%%%%%%%%%&&&&&&&&&+##+.....................",
".......................+#+%%%%%%%%%***%%%%%%%%%%%%%%%%%%%%%%%%%%%&&&&&&&&&&+#+......................",
".......................+##+%%%%%%%%%%%%%%%%%%%%%%%%%%%%%%%%%%%%%&&&&&&&&&&+##+......................",
"........................+#+%%%%%%%%%%%%%%%%%%%%%%%%%%%%%%%%%%%%&&&&&&&&&&&+#+.......................",
"........................+##+%%%%%%%%%%%%%%%%%%%%%%%%%%%%%%%%%%&&&&&&&&&&&+##+.......................",
".........................+#+%%%%%%%%%%%%%%%%%%%%%%%%%%%%%%%%%%&&&&&&&&&&+##+........................",
".........................+##+%%%%%%%%%%%%%%%%%%%%%%%%%%%%%%%&&&&&&&&&&&&+##+........................",
"..........................+##+%%%%%%%%%%%%%%%%%%%***%%%%%%&&&&&&&&&&&&&+##+.........................",
"..........................+###+%%%%%%%%%%%%%%%%%%*%*%%%&&&&&&&&&&&&&&&&+##+.........................",
"...........................+##+%%%%%%%%%%%%%%%%%%***%&&&&&&&&&&&&&&&&++##+..........................",
"............................+##+%%%%%%%%%%%%%%%%%%%&&&&&&&&&&&&&&&&&++##+...........................",
".............................+##+%%%%%%%%%%%%%%%%%&&&&&&&&&&&&&&&&&&+##+............................",
"..............................+##++&&%%%%%%%&&&&&&&&&&&&&&&&&&&&&&++##+.............................",
"...............................+###+&&&&&&&&&&&&&&&&&&&&&&&&&&&&++###+..............................",
"................................+###+&&&&&&&&&&&&&&&&&&&&&&&&&&+####+...............................",
".................................++##++&&&&&&&&&&&&&&&&&&&&&&++###++................................",
"...................................++##++++&&+++++++++++&&&++###++..................................",
".....................................++####++###########+++###++....................................",
".......................................++#####=========#####++......................................",
".........................................++++###########++++........................................",
".............................................+++++++++++............................................"};
