/* XPM */
static char * test_mana_xpm[] = {
"64 64 125 2",
"  	c None",
". 	c #ACE6E2",
"+ 	c #1C263B",
"@ 	c #E07D25",
"# 	c #E17E26",
"$ 	c #FFFFFF",
"% 	c #E9C1A2",
"& 	c #EAC3A4",
"* 	c #FEFDFD",
"= 	c #F3FBFA",
"- 	c #F4FBFA",
"; 	c #EFFAF9",
"> 	c #F1FAF9",
", 	c #FAFDFD",
"' 	c #FBFEFD",
") 	c #FDFEFE",
"! 	c #F6FCFB",
"~ 	c #F1FAFA",
"{ 	c #FEFFFE",
"] 	c #FBFDFD",
"^ 	c #003482",
"/ 	c #002F81",
"( 	c #003181",
"_ 	c #003283",
": 	c #003183",
"< 	c #002D74",
"[ 	c #031844",
"} 	c #1564D4",
"| 	c #0E63D4",
"1 	c #1764D4",
"2 	c #6A8AC1",
"3 	c #6E8DBF",
"4 	c #2367D3",
"5 	c #145BBF",
"6 	c #133F77",
"7 	c #1565D6",
"8 	c #587FC7",
"9 	c #2267D3",
"0 	c #0262D5",
"a 	c #6C8CBF",
"b 	c #1063D4",
"c 	c #133F78",
"d 	c #537CC9",
"e 	c #356DD0",
"f 	c #2A69D2",
"g 	c #6688C2",
"h 	c #1163D4",
"i 	c #1459BA",
"j 	c #0061D4",
"k 	c #1364D4",
"l 	c #4E79CA",
"m 	c #527BC9",
"n 	c #133E75",
"o 	c #134079",
"p 	c #1865D4",
"q 	c #597FC7",
"r 	c #6B8BC0",
"s 	c #1464D4",
"t 	c #1560CB",
"u 	c #6083C4",
"v 	c #2F6BD1",
"w 	c #396FCF",
"x 	c #5A80C7",
"y 	c #144C99",
"z 	c #0D63D4",
"A 	c #6E8DBE",
"B 	c #0962D5",
"C 	c #698AC1",
"D 	c #1264D4",
"E 	c #155FC8",
"F 	c #133E76",
"G 	c #3C70CF",
"H 	c #4D79CB",
"I 	c #1B65D4",
"J 	c #5B80C6",
"K 	c #336CD1",
"L 	c #1564D5",
"M 	c #13478D",
"N 	c #123F78",
"O 	c #4976CC",
"P 	c #155DC4",
"Q 	c #13407A",
"R 	c #2668D2",
"S 	c #1864D4",
"T 	c #1560CA",
"U 	c #13407C",
"V 	c #6C8BBF",
"W 	c #6587C3",
"X 	c #13417F",
"Y 	c #1564D3",
"Z 	c #1263D4",
"` 	c #6F8DBE",
" .	c #2C6AD2",
"..	c #1453AC",
"+.	c #1451A7",
"@.	c #144079",
"#.	c #1665D6",
"$.	c #1459BB",
"%.	c #1664D4",
"&.	c #1451A6",
"*.	c #13468C",
"=.	c #6D8CBF",
"-.	c #145ABD",
";.	c #145ABC",
">.	c #6C8BC0",
",.	c #718FBC",
"'.	c #2966CB",
").	c #134589",
"!.	c #1565D5",
"~.	c #0E63D5",
"{.	c #0A4A9C",
"].	c #123E75",
"^.	c #1450A4",
"/.	c #1561CE",
"(.	c #1562CF",
"_.	c #134384",
":.	c #134382",
"<.	c #0D3B73",
"[.	c #133F76",
"}.	c #14407A",
"|.	c #0F3C74",
"1.	c #113D76",
"2.	c #06376D",
"3.	c #08386F",
"4.	c #103D76",
". . . . . . . . . . . . . . . . . . . . . . . . . . . . . . . . . . . . . . . . . . . . . . . . . . . . . . . . . . . . . . . . ",
". . . . . . . . . . . . . . . . . . . . . . . . . . . . . . . . . . . . . . . . . . . . . . . . . . . . . . . . . . . . . . . . ",
". . . . . . . . . . . . . . . . . . . . . . . . . . . . . . . . . . . . . . . . . . . . . . . . . . . . . . . . . . . . . . . . ",
". . . . . . . . . . . . . . . . . . . . . . . . . . . . . . . . . . . . . . . . . . . . . . . . . . . . . . . . . . . . . . . . ",
". . . . . . . . . . . . . . . . . . . . . . . . . . . . . . . . . . . . . . . . . . . . . . . . . . . . . . . . . . . . . . . . ",
". . . . . . . . . . . . . . . . . . . . . . . . . . . + + + + + + + + + + . . . . . . . . . . . . . . . . . . . . . . . . . . . ",
". . . . . . . . . . . . . . . . . . . . . . . . . . . + @ @ @ @ @ @ @ @ + . . . . . . . . . . . . . . . . . . . . . . . . . . . ",
". . . . . . . . . . . . . . . . . . . . . . . . . . . . + # @ @ @ @ @ + . . . . . . . . . . . . . . . . . . . . . . . . . . . . ",
". . . . . . . . . . . . . . . . . . . . . . . . + + + + + + + + + + + + + + + + . . . . . . . . . . . . . . . . . . . . . . . . ",
". . . . . . . . . . . . . . . . . . . . . . . . + $ $ $ $ % % % % % % $ $ $ $ + . . . . . . . . . . . . . . . . . . . . . . . . ",
". . . . . . . . . . . . . . . . . . . . . . . . + $ $ $ $ % & & & & % * $ $ $ + . . . . . . . . . . . . . . . . . . . . . . . . ",
". . . . . . . . . . . . . . . . . . . . . . . . + + + + + + + + + + + + + + + + . . . . . . . . . . . . . . . . . . . . . . . . ",
". . . . . . . . . . . . . . . . . . . . . . . . . + $ + + @ @ @ @ @ @ + + $ + . . . . . . . . . . . . . . . . . . . . . . . . . ",
". . . . . . . . . . . . . . . . . . . . . . . . . + $ + + + @ @ @ @ + + + $ + . . . . . . . . . . . . . . . . . . . . . . . . . ",
". . . . . . . . . . . . . . . . . . . . . . . . . + $ + . . + + + + . . + $ + . . . . . . . . . . . . . . . . . . . . . . . . . ",
". . . . . . . . . . . . . . . . . . . . . . . . . + $ + . . . . . . . . + $ + . . . . . . . . . . . . . . . . . . . . . . . . . ",
". . . . . . . . . . . . . . . . . . . . . . . . . + $ + . . . . . . . . + $ + . . . . . . . . . . . . . . . . . . . . . . . . . ",
". . . . . . . . . . . . . . . . . . . . . . . . . + $ + . . . . . . . . + $ + . . . . . . . . . . . . . . . . . . . . . . . . . ",
". . . . . . . . . . . . . . . . . . . . . . . . . + $ + . . . . . . . . + $ + . . . . . . . . . . . . . . . . . . . . . . . . . ",
". . . . . . . . . . . . . . . . . . . . . . . . . + $ + . . . . . . . . + $ + . . . . . . . . . . . . . . . . . . . . . . . . . ",
". . . . . . . . . . . . . . . . . . . . . . . . . + $ + . . . . . . . . + $ + . . . . . . . . . . . . . . . . . . . . . . . . . ",
". . . . . . . . . . . . . . . . . . . . . . . . . + $ + . . . . . . . . + $ + . . . . . . . . . . . . . . . . . . . . . . . . . ",
". . . . . . . . . . . . . . . . . . . . . . . . . + $ + . . . . . . . . + $ + . . . . . . . . . . . . . . . . . . . . . . . . . ",
". . . . . . . . . . . . . . . . . . . . . . . . . + $ + . . . . . . . . + $ + . . . . . . . . . . . . . . . . . . . . . . . . . ",
". . . . . . . . . . . . . . . . . . . . . . . . . + $ + . . . . . . . . + $ + . . . . . . . . . . . . . . . . . . . . . . . . . ",
". . . . . . . . . . . . . . . . . . . . . . . . . + $ + . . . . . . . . + $ + . . . . . . . . . . . . . . . . . . . . . . . . . ",
". . . . . . . . . . . . . . . . . . . . . . . . . + $ + . . . . . . . . + $ + . . . . . . . . . . . . . . . . . . . . . . . . . ",
". . . . . . . . . . . . . . . . . . . . . . . . . + $ + . . . . . . . . + $ + + . . . . . . . . . . . . . . . . . . . . . . . . ",
". . . . . . . . . . . . . . . . . . . . . . . + + $ $ + . . . . . . . . + $ $ $ + + . . . . . . . . . . . . . . . . . . . . . . ",
". . . . . . . . . . . . . . . . . . . . . + + $ $ + + . . . . . . . . . . + + $ $ $ + + . . . . . . . . . . . . . . . . . . . . ",
". . . . . . . . . . . . . . . . . . . . + $ $ + + . . . . . . . . . . . . . . + + $ $ $ + . . . . . . . . . . . . . . . . . . . ",
". . . . . . . . . . . . . . . . . . . + $ + + . . . . . = - - - - ; . . . . . . . + + $ $ + . . . . . . . . . . . . . . . . . . ",
". . . . . . . . . . . . . . . . . . + $ + . . . . . . > $ $ $ $ $ $ $ , . . . . . . . + $ $ + . . . . . . . . . . . . . . . . . ",
". . . . . . . . . . . . . . . . . + $ + . . . . . , $ $ $ $ $ $ $ $ $ $ ' . . . . . . . + $ $ + . . . . . . . . . . . . . . . . ",
". . . . . . . . . . . . . . . . + $ + . . . . . ) $ $ $ $ $ $ $ $ $ $ $ $ . . . . . . . . + $ + . . . . . . . . . . . . . . . . ",
". . . . . . . . . . . . . . . . + $ + . . . . . $ $ $ $ $ $ $ $ $ ! ! . . . . . . . . . . . + $ + . . . . . . . . . . . . . . . ",
". . . . . . . . . . . . . . . + $ + . . . . . $ $ $ $ $ $ $ ~ . . . . . . . . . . . . . . . + $ + . . . . . . . . . . . . . . . ",
". . . . . . . . . . . . . . . + $ + . . . . $ $ $ $ { . . . . . . . . . . . . . . . . . . . . + $ + . . . . . . . . . . . . . . ",
". . . . . . . . . . . . . . + $ + . . . . $ $ $ ] . . . . . . . . . . . . . . . . . . . . . . + $ + . . . . . . . . . . . . . . ",
". . . . . . . . . . . . . . + $ + ^ ^ / ^ $ $ ^ ( ^ ^ ^ ^ ^ ^ ^ ^ ^ ^ ^ ^ ^ ^ ^ ^ ^ _ : ^ ^ < [ + $ + . . . . . . . . . . . . . ",
". . . . . . . . . . . . . . + $ + } } } $ $ } | } } } } } } } } } } } } } } } } } 1 2 3 4 } 5 6 + $ + . . . . . . . . . . . . . ",
". . . . . . . . . . . . . + $ + 7 } } $ $ } } } } } } } } } } } } } } } } } } } } 8 9 0 a b 5 6 c + $ + . . . . . . . . . . . . ",
". . . . . . . . . . . . . + $ + } } } $ } } } } } } } } } } } } } } } } } } } } } d e f g h i 6 c + $ + . . . . . . . . . . . . ",
". . . . . . . . . . . . . + $ + } } j $ } } } } } } } } } } } } } } h | k } } } } | l m k } n c o + $ + . . . . . . . . . . . . ",
". . . . . . . . . . . . . + $ + } } } } } } } } } } } } } } } } } p q r l s } } } } } } } t 6 c o + $ + . . . . . . . . . . . . ",
". . . . . . . . . . . . . + $ + } } } } } } } } } } } } } } } } b u v b w x k } } } } } } y c c o + $ + . . . . . . . . . . . . ",
". . . . . . . . . . . . . + $ + } } } } } } } } } } } } } } } } z A B } z C D } } } } } E F c c o + $ + . . . . . . . . . . . . ",
". . . . . . . . . . . . . + $ + } } } } } } } } } } } } } } } } s G H I J K } } } } } L M c c c N + $ + . . . . . . . . . . . . ",
". . . . . . . . . . . . . + $ + 7 } } } } } } } } } } } } } } } } } O u w } } } } } } P Q c c c + $ + . . . . . . . . . . . . . ",
". . . . . . . . . . . . . . + $ + } } } } } 4 R S } } } } } } } } } } } } } } } } } T U c c c c + $ + . . . . . . . . . . . . . ",
". . . . . . . . . . . . . . + $ + } } } } h V W v } } } } } } } } } } } } } } } } 7 X c c c c 6 + $ + . . . . . . . . . . . . . ",
". . . . . . . . . . . . . . + $ + Y } } } Z W `  .} } } } } } } } } } } } } } } } ..c c c c c + $ + . . . . . . . . . . . . . . ",
". . . . . . . . . . . . . . . + $ + } } } } b | s } } } } } } } } } } } } } } L +.F c c c c @.+ $ + . . . . . . . . . . . . . . ",
". . . . . . . . . . . . . . . + $ + #.} } } } } } } } } } } } } } } } } } } } $.c c c c c c + $ + . . . . . . . . . . . . . . . ",
". . . . . . . . . . . . . . . . + $ + } } } } } } } } } } } } %.%.} } } } } &.*.c c c c c c + $ + . . . . . . . . . . . . . . . ",
". . . . . . . . . . . . . . . . + $ $ + } } } } } } } } } } b 3 =.f 7 -.;.6 c c c c c c o + $ + . . . . . . . . . . . . . . . . ",
". . . . . . . . . . . . . . . . . + $ + s } } } } } } } } } b >.,.'.).c c c c c c c c c + $ $ + . . . . . . . . . . . . . . . . ",
". . . . . . . . . . . . . . . . . . + $ + 7 !.L } } } } !.!.!.~.{.].c c c c c c c c o + $ $ + . . . . . . . . . . . . . . . . . ",
". . . . . . . . . . . . . . . . . . . + $ + L ^./././.(._.:.:.:.c c c c c c c c c <.+ $ $ + . . . . . . . . . . . . . . . . . . ",
". . . . . . . . . . . . . . . . . . . . + $ + + [.n n n c c c c c c c c c c c }.+ + $ $ + . . . . . . . . . . . . . . . . . . . ",
". . . . . . . . . . . . . . . . . . . . . + $ $ + + + |.1.2.2.2.2.2.2.3.c 4.+ + $ $ + + . . . . . . . . . . . . . . . . . . . . ",
". . . . . . . . . . . . . . . . . . . . . . + + $ $ $ + + + + + + + + + + + $ $ + + . . . . . . . . . . . . . . . . . . . . . . ",
". . . . . . . . . . . . . . . . . . . . . . . . + + $ $ $ $ $ $ $ $ $ $ $ $ + + . . . . . . . . . . . . . . . . . . . . . . . . ",
". . . . . . . . . . . . . . . . . . . . . . . . . . + + + + + + + + + + + + . . . . . . . . . . . . . . . . . . . . . . . . . . "};
